<?xml version="1.0" encoding="UTF-8"?>
<svg width="155px" height="60px" viewBox="0 0 155 60" xmlns="http://www.w3.org/2000/svg" xmlns:xlink="http://www.w3.org/1999/xlink" version="1.1">
 <!-- Generated by Pixelmator Pro 1.3.1 -->
 <path id="path" d="M145.512 28.74 C145.512 28.452 145.44 28.2 145.296 27.984 145.116 27.768 144.9 27.552 144.648 27.408 144.396 27.264 144.108 27.156 143.82 27.048 143.496 26.976 143.208 26.94 142.92 26.94 142.2 26.94 141.516 27.12 140.904 27.48 140.256 27.876 139.644 28.344 139.104 28.884 138.564 29.46 138.096 30.036 137.664 30.648 137.232 31.296 136.908 31.908 136.62 32.412 L136.8 30.936 C136.836 30.36 136.872 29.856 136.872 29.424 136.872 28.812 136.692 28.344 136.404 28.056 136.08 27.768 135.54 27.588 134.82 27.588 134.28 27.588 133.848 27.732 133.488 28.02 133.128 28.308 132.948 28.668 132.876 29.064 132.804 29.424 132.732 29.748 132.732 30.108 L132.66 31.152 C132.624 31.872 132.624 32.556 132.624 33.204 L132.624 36.48 132.696 37.956 132.768 39.36 C132.768 39.828 132.804 40.188 132.804 40.476 132.804 40.908 132.84 41.34 132.912 41.808 132.948 42.312 133.092 42.708 133.38 43.032 133.56 43.284 133.776 43.464 134.064 43.608 134.316 43.752 134.676 43.86 135.108 43.86 135.684 43.86 136.188 43.716 136.692 43.428 137.16 43.14 137.412 42.744 137.412 42.168 137.412 41.448 137.304 40.692 137.16 39.936 137.016 39.216 136.944 38.496 136.944 37.74 136.944 37.452 137.016 37.092 137.196 36.624 137.34 36.156 137.556 35.688 137.808 35.184 138.024 34.716 138.24 34.248 138.528 33.78 138.78 33.348 138.996 32.952 139.212 32.664 139.356 32.412 139.608 32.124 139.896 31.8 140.148 31.512 140.436 31.26 140.796 31.008 141.12 30.756 141.48 30.54 141.84 30.36 142.2 30.216 142.596 30.108 142.956 30.108 143.028 30.108 143.172 30.144 143.388 30.216 L143.64 30.288 C143.712 30.324 143.784 30.324 143.892 30.324 144.108 30.324 144.288 30.288 144.504 30.144 144.684 30.072 144.864 29.928 145.008 29.784 145.152 29.64 145.26 29.46 145.368 29.244 145.44 29.064 145.512 28.884 145.512 28.74 Z" fill="#ffffff" fill-opacity="1" stroke="none"/>
 <path id="path-1" d="M128.664 35.508 C128.664 34.284 128.448 33.132 128.088 32.088 127.656 31.08 127.08 30.18 126.36 29.424 125.604 28.704 124.704 28.128 123.624 27.696 122.544 27.336 121.32 27.12 119.988 27.12 118.692 27.12 117.576 27.408 116.64 27.984 115.632 28.56 114.84 29.28 114.192 30.144 113.544 31.008 113.04 32.016 112.752 33.096 112.392 34.176 112.248 35.256 112.248 36.264 112.248 37.488 112.428 38.568 112.824 39.54 113.22 40.548 113.76 41.376 114.48 42.096 115.128 42.816 115.956 43.356 116.928 43.752 117.864 44.112 118.872 44.328 120.024 44.328 121.284 44.328 122.472 44.04 123.552 43.536 124.596 43.032 125.496 42.384 126.288 41.52 127.008 40.728 127.584 39.792 128.016 38.712 128.448 37.668 128.664 36.588 128.664 35.508 Z M125.388 35.04 C125.388 35.688 125.244 36.372 125.028 37.092 124.776 37.848 124.416 38.532 123.984 39.144 123.516 39.792 122.976 40.296 122.328 40.728 121.68 41.16 120.996 41.34 120.204 41.34 118.8 41.34 117.72 40.872 117 39.936 116.244 39.036 115.884 37.848 115.884 36.336 115.884 35.616 115.992 34.896 116.244 34.176 116.46 33.456 116.784 32.772 117.216 32.16 117.648 31.584 118.152 31.116 118.728 30.72 119.304 30.36 119.988 30.144 120.708 30.144 122.292 30.144 123.48 30.612 124.272 31.548 124.992 32.484 125.388 33.672 125.388 35.04 Z" fill="#ffffff" fill-opacity="1" stroke="none"/>
 <path id="path-2" d="M110.088 41.412 C110.088 41.088 109.944 40.836 109.728 40.692 109.476 40.548 109.188 40.476 108.864 40.476 108.576 40.476 108.252 40.548 107.964 40.656 107.676 40.8 107.496 41.052 107.46 41.34 107.388 41.376 107.388 41.412 107.388 41.412 107.352 41.448 107.316 41.484 107.28 41.484 107.136 41.592 107.028 41.664 106.956 41.7 106.848 41.772 106.74 41.772 106.596 41.772 106.2 41.772 105.912 41.628 105.696 41.304 105.48 41.016 105.3 40.692 105.228 40.296 105.12 39.9 105.048 39.504 105.048 39.072 105.012 38.676 105.012 38.388 105.012 38.172 105.012 37.092 105.012 36.012 105.084 34.932 L105.228 31.692 C105.516 31.692 105.948 31.62 106.452 31.512 106.956 31.44 107.46 31.332 107.964 31.152 108.468 31.008 108.9 30.828 109.26 30.612 109.62 30.396 109.8 30.144 109.8 29.784 109.8 29.496 109.584 29.244 109.188 29.064 108.792 28.92 108.324 28.812 107.784 28.74 107.532 28.74 107.208 28.704 106.776 28.704 L105.444 28.704 105.588 27.12 C105.66 26.616 105.732 26.112 105.84 25.572 L105.948 24.96 C105.984 24.744 106.02 24.528 106.02 24.312 106.02 24.096 105.912 23.916 105.696 23.7 105.48 23.52 105.228 23.34 104.94 23.16 104.652 23.016 104.328 22.908 104.04 22.8 103.716 22.728 103.464 22.656 103.284 22.656 102.996 22.656 102.708 22.692 102.384 22.728 102.024 22.8 101.772 22.944 101.592 23.124 101.52 23.196 101.484 23.268 101.412 23.412 101.34 23.556 101.34 23.736 101.34 23.916 L101.34 24.816 C101.34 25.176 101.304 25.536 101.304 25.932 101.232 26.508 101.196 27.048 101.196 27.552 L101.196 28.776 99.9 28.848 C99.432 28.884 99 28.884 98.568 28.884 98.172 28.884 97.813 28.956 97.524 29.1 97.236 29.244 97.092 29.532 97.092 29.928 97.092 30.144 97.092 30.396 97.164 30.648 97.236 30.936 97.344 31.224 97.488 31.44 97.632 31.656 97.813 31.872 98.064 32.016 98.28 32.16 98.604 32.232 98.964 32.232 99.288 32.232 99.648 32.232 100.044 32.16 L101.124 32.052 101.052 34.896 C101.016 35.832 101.016 36.768 101.016 37.704 101.016 38.352 101.052 39.036 101.196 39.756 101.304 40.476 101.556 41.16 101.916 41.736 102.24 42.312 102.708 42.816 103.356 43.176 104.004 43.572 104.832 43.788 105.84 43.788 106.236 43.788 106.704 43.716 107.244 43.608 107.748 43.5 108.216 43.32 108.684 43.104 109.044 42.924 109.404 42.672 109.692 42.384 109.944 42.096 110.088 41.772 110.088 41.412 Z" fill="#ffffff" fill-opacity="1" stroke="none"/>
 <path id="path-3" d="M93.852 22.44 C93.852 21.756 93.564 21.18 92.988 20.676 92.664 20.46 92.34 20.316 92.016 20.172 91.656 20.064 91.296 19.992 90.9 19.992 90.288 19.992 89.748 20.208 89.244 20.568 88.776 20.964 88.56 21.432 88.56 22.008 88.56 22.728 88.884 23.34 89.568 23.808 90.144 24.24 90.792 24.456 91.584 24.456 92.232 24.456 92.772 24.312 93.204 23.952 93.636 23.592 93.852 23.088 93.852 22.44 Z M93.06 29.208 C93.06 28.956 92.916 28.704 92.7 28.452 92.448 28.236 92.196 28.056 91.944 27.912 91.512 27.696 91.044 27.552 90.612 27.552 90.396 27.552 90.144 27.588 89.892 27.66 89.604 27.732 89.388 27.876 89.244 28.056 89.064 28.272 88.956 28.596 88.92 28.992 88.848 29.424 88.813 29.964 88.813 30.648 L88.74 37.92 88.74 41.052 C88.74 41.34 88.776 41.664 88.92 41.952 89.028 42.24 89.208 42.528 89.496 42.744 89.568 42.816 89.748 42.96 90.072 43.176 90.396 43.392 90.684 43.5 90.972 43.5 91.224 43.5 91.512 43.428 91.872 43.248 92.232 43.104 92.448 42.852 92.592 42.492 92.808 42.024 92.952 41.556 92.952 41.124 92.916 41.088 92.916 41.052 92.916 40.98 92.916 40.944 92.88 40.872 92.88 40.8 92.844 40.728 92.844 40.656 92.844 40.584 92.844 40.512 92.808 40.44 92.808 40.332 92.7 40.008 92.628 39.648 92.628 39.252 L92.592 37.992 92.592 35.58 C92.592 35.076 92.592 34.536 92.628 33.96 92.628 33.42 92.664 33.024 92.664 32.736 L92.664 32.304 92.736 31.692 92.808 31.044 C92.808 30.828 92.844 30.648 92.88 30.504 92.916 30.216 92.952 29.964 93.024 29.712 93.024 29.46 93.06 29.28 93.06 29.208 Z" fill="#ffffff" fill-opacity="1" stroke="none"/>
 <path id="path-4" d="M84.24 20.496 C84.24 20.064 83.808 19.632 83.016 19.236 82.728 19.092 82.44 18.984 82.188 18.912 81.9 18.84 81.684 18.804 81.504 18.804 81.216 18.804 80.964 18.876 80.82 18.984 80.64 19.128 80.496 19.272 80.388 19.488 80.28 19.668 80.208 19.92 80.172 20.208 80.1 20.496 80.028 20.82 80.028 21.144 79.956 21.468 79.956 21.792 79.956 22.08 79.92 22.404 79.92 22.656 79.92 22.8 79.92 23.016 79.884 23.592 79.884 24.6 79.848 25.644 79.813 26.94 79.813 28.524 79.272 28.02 78.624 27.624 77.868 27.336 77.076 27.048 76.212 26.868 75.276 26.868 73.944 26.868 72.828 27.228 71.892 27.912 70.956 28.632 70.236 29.496 69.66 30.504 69.048 31.548 68.616 32.664 68.364 33.816 68.076 34.968 67.932 36.012 67.932 36.912 67.932 37.92 68.076 38.82 68.4 39.648 68.688 40.476 69.156 41.196 69.804 41.808 70.38 42.42 71.172 42.888 72.108 43.248 73.008 43.572 74.088 43.752 75.348 43.752 76.176 43.752 76.932 43.572 77.652 43.248 78.372 42.888 79.02 42.312 79.596 41.52 79.632 41.844 79.668 42.204 79.74 42.6 79.813 42.996 79.884 43.248 79.992 43.356 80.496 43.968 81.072 44.292 81.684 44.292 81.828 44.292 82.044 44.256 82.26 44.22 L82.908 44.004 C83.124 43.896 83.304 43.788 83.448 43.644 83.592 43.5 83.664 43.356 83.664 43.14 L83.556 42.6 C83.484 42.456 83.448 42.204 83.412 41.916 83.376 41.628 83.34 41.304 83.34 40.872 83.304 40.476 83.304 39.936 83.304 39.288 83.304 38.82 83.304 38.208 83.34 37.488 L83.34 35.256 83.412 32.88 83.412 30.72 C83.412 30.072 83.448 29.496 83.484 28.992 L83.484 28.128 C83.484 27.624 83.52 26.904 83.592 25.968 L83.808 23.124 83.916 22.548 84.06 21.72 84.132 21.36 C84.132 21.288 84.132 21.18 84.168 21.036 84.168 20.928 84.204 20.82 84.204 20.712 84.204 20.64 84.24 20.568 84.24 20.496 Z M79.632 34.248 C79.632 34.896 79.56 35.58 79.452 36.372 79.308 37.164 79.092 37.92 78.768 38.64 78.408 39.36 77.94 39.972 77.364 40.44 76.788 40.944 76.032 41.196 75.096 41.196 74.448 41.196 73.908 41.088 73.476 40.8 73.044 40.584 72.684 40.26 72.468 39.864 72.18 39.468 72 39.036 71.928 38.532 71.82 38.064 71.784 37.596 71.784 37.092 71.784 36.516 71.82 35.832 71.964 35.04 72.108 34.248 72.324 33.456 72.684 32.736 73.008 32.016 73.476 31.368 74.052 30.828 74.592 30.324 75.313 30.036 76.176 30.036 76.752 30.036 77.292 30.18 77.724 30.396 78.156 30.648 78.516 30.972 78.804 31.332 79.092 31.728 79.308 32.16 79.452 32.664 79.56 33.204 79.632 33.744 79.632 34.248 Z" fill="#ffffff" fill-opacity="1" stroke="none"/>
 <path id="path-5" d="M65.412 20.028 C65.412 19.596 65.232 19.236 64.908 18.912 64.548 18.624 64.152 18.48 63.684 18.48 63.468 18.48 63.18 18.516 62.82 18.516 62.46 18.552 62.1 18.588 61.704 18.624 L60.444 18.696 59.256 18.768 56.052 18.912 C55.008 18.948 53.964 18.984 52.92 19.02 51.984 19.092 51.12 19.128 50.292 19.2 49.428 19.308 48.78 19.452 48.348 19.632 48.06 19.776 47.844 19.92 47.772 20.136 47.664 20.352 47.628 20.568 47.628 20.748 47.628 21.144 47.772 21.468 48.06 21.72 48.312 22.008 48.636 22.224 48.996 22.332 48.996 23.016 48.96 23.628 48.96 24.204 L48.888 25.896 48.78 27.624 48.708 29.496 48.528 29.496 C48.42 29.532 48.348 29.532 48.276 29.532 L48.096 29.532 C47.736 29.604 47.412 29.748 47.052 30 46.692 30.252 46.548 30.576 46.548 30.972 46.548 31.44 46.692 31.8 46.98 32.088 47.268 32.376 47.628 32.52 48.06 32.52 L48.564 32.52 C48.528 32.736 48.492 33.06 48.42 33.456 48.348 33.888 48.312 34.32 48.276 34.824 L48.132 36.264 C48.06 36.768 48.06 37.164 48.06 37.524 48.06 37.956 48.06 38.352 48.132 38.748 48.168 39.18 48.276 39.576 48.492 39.972 48.78 40.62 49.212 41.16 49.86 41.52 50.472 41.952 51.156 42.24 51.948 42.456 52.704 42.708 53.496 42.888 54.288 42.96 55.08 43.032 55.764 43.068 56.412 43.068 57.528 43.068 58.608 43.032 59.688 42.96 60.732 42.888 61.812 42.78 62.928 42.636 63.144 42.636 63.36 42.564 63.648 42.492 63.9 42.42 64.152 42.348 64.404 42.204 64.62 42.096 64.836 41.952 65.016 41.736 65.16 41.556 65.268 41.34 65.268 41.052 65.268 40.836 65.16 40.584 64.98 40.332 64.8 40.116 64.584 39.9 64.332 39.72 64.044 39.54 63.756 39.396 63.468 39.288 63.18 39.18 62.928 39.108 62.712 39.108 62.388 39.108 62.1 39.144 61.884 39.144 61.596 39.18 61.344 39.216 61.092 39.252 60.804 39.324 60.552 39.36 60.3 39.432 L59.544 39.576 C58.932 39.72 58.32 39.792 57.744 39.864 57.132 39.936 56.52 39.972 55.908 39.972 55.404 39.972 54.936 39.972 54.432 39.9 53.928 39.864 53.46 39.756 53.064 39.576 52.632 39.432 52.308 39.216 52.056 38.928 51.768 38.64 51.66 38.28 51.66 37.776 51.66 36.948 51.696 36.012 51.804 35.004 51.912 33.996 52.02 33.096 52.092 32.232 52.668 32.196 53.352 32.16 54.108 32.088 54.828 32.016 55.548 31.98 56.34 31.908 57.06 31.872 57.816 31.8 58.572 31.728 59.328 31.692 60.048 31.62 60.732 31.548 61.2 31.512 61.632 31.368 61.992 31.08 62.352 30.864 62.532 30.468 62.532 29.928 62.532 29.46 62.352 29.064 62.028 28.776 61.668 28.524 61.236 28.38 60.768 28.38 60.408 28.38 60.012 28.416 59.616 28.416 59.184 28.488 58.752 28.524 58.284 28.56 57.924 28.632 57.492 28.668 56.988 28.704 L55.368 28.848 53.748 28.92 52.308 29.028 C52.452 26.868 52.524 24.636 52.524 22.368 53.388 22.296 54.18 22.26 54.936 22.188 55.656 22.152 56.484 22.116 57.384 22.044 58.428 21.972 59.544 21.936 60.732 21.936 61.884 21.936 62.964 21.864 64.008 21.72 64.476 21.684 64.836 21.504 65.052 21.144 65.268 20.82 65.412 20.46 65.412 20.028 Z" fill="#ffffff" fill-opacity="1" stroke="none"/>
 <defs>
  <text id="string" transform="matrix(1.0 0.0 0.0 1.0 25.260499954220002 5.5)">
   <tspan x="7.5" y="38.0" font-family="HannotateSC-W7, Hannotate SC" font-size="36" text-decoration="none"> </tspan>
  </text>
 </defs>
 <use id="-" xlink:href="#string" fill="#30d9cc" fill-opacity="1" stroke="none"/>
 <path id="path-6" d="M30.96 20.316 C30.96 20.028 30.852 19.74 30.708 19.524 30.564 19.308 30.348 19.164 30.132 19.02 29.88 18.912 29.628 18.84 29.34 18.768 29.052 18.696 28.836 18.66 28.62 18.66 28.116 18.66 27.756 18.768 27.468 18.912 27.18 19.056 26.964 19.272 26.82 19.488 26.676 19.776 26.568 20.064 26.532 20.352 26.496 20.676 26.496 20.964 26.496 21.252 26.496 21.54 26.496 21.792 26.532 22.08 L26.532 22.872 C26.532 23.952 26.496 25.176 26.46 26.472 26.388 27.804 26.316 29.028 26.316 30.108 25.776 30.18 25.056 30.288 24.12 30.36 23.184 30.468 22.176 30.576 21.132 30.648 L18.108 30.972 C17.1 31.08 16.236 31.152 15.588 31.152 15.552 30.828 15.552 30.504 15.552 30.144 L15.552 29.136 C15.552 28.596 15.588 28.02 15.66 27.408 15.732 26.832 15.84 26.22 15.984 25.572 16.092 24.96 16.236 24.348 16.38 23.736 L16.74 22.044 C16.74 22.044 16.776 22.008 16.776 21.936 16.776 21.9 16.813 21.828 16.813 21.72 16.813 21.468 16.704 21.216 16.524 21 16.344 20.82 16.128 20.64 15.876 20.496 15.624 20.388 15.372 20.28 15.084 20.208 14.796 20.136 14.58 20.1 14.4 20.1 13.896 20.1 13.572 20.208 13.356 20.424 13.14 20.64 12.96 20.928 12.852 21.288 12.672 21.72 12.528 22.296 12.42 22.944 12.312 23.592 12.24 24.312 12.204 25.032 12.096 25.968 12.024 26.832 11.988 27.696 11.916 28.596 11.916 29.352 11.916 29.964 L11.916 30.612 C11.916 30.828 11.952 31.044 11.952 31.26 11.88 31.26 11.772 31.296 11.628 31.296 L11.268 31.296 C10.728 31.296 10.332 31.476 10.116 31.8 9.9 32.16 9.792 32.556 9.792 32.916 9.792 33.348 9.972 33.708 10.368 33.96 10.728 34.248 11.124 34.356 11.484 34.356 L12.06 34.356 C12.06 34.86 12.096 35.436 12.132 36.12 12.168 36.84 12.24 37.524 12.312 38.208 12.384 38.964 12.456 39.684 12.6 40.368 12.708 41.052 12.852 41.592 13.068 41.988 13.392 42.744 13.968 43.104 14.832 43.104 15.264 43.104 15.66 42.96 16.092 42.672 16.524 42.42 16.74 42.06 16.74 41.556 16.74 41.448 16.704 41.304 16.668 41.088 16.488 40.476 16.344 39.828 16.236 39.18 16.092 38.532 16.02 37.884 15.984 37.2 15.912 36.732 15.876 36.228 15.876 35.724 L15.732 34.248 21.348 33.816 22.392 33.708 23.724 33.564 C24.192 33.528 24.66 33.456 25.128 33.384 25.56 33.348 25.956 33.312 26.316 33.24 26.316 34.248 26.316 35.256 26.388 36.192 26.388 37.2 26.424 38.208 26.496 39.216 26.496 39.468 26.532 39.684 26.532 39.9 L26.532 40.548 C26.532 40.8 26.568 41.016 26.568 41.232 26.568 41.484 26.568 41.7 26.64 41.916 26.712 42.42 27 42.78 27.504 43.032 27.972 43.32 28.44 43.428 28.944 43.428 29.448 43.428 29.844 43.32 30.168 43.032 30.456 42.744 30.636 42.348 30.636 41.808 30.636 41.592 30.6 41.34 30.564 41.124 L30.456 40.476 C30.384 40.224 30.348 39.936 30.348 39.576 30.276 39.252 30.24 38.928 30.24 38.64 30.168 37.488 30.096 36.372 30.096 35.256 30.06 34.176 30.06 33.06 30.06 31.908 30.06 30.612 30.06 29.28 30.132 27.84 30.132 26.436 30.204 25.068 30.276 23.772 30.276 23.268 30.348 22.764 30.456 22.296 30.528 21.864 30.672 21.396 30.888 20.892 30.924 20.676 30.96 20.46 30.96 20.316 Z" fill="#ffffff" fill-opacity="1" stroke="none"/>
 <path id="path-7" d="M40.342 46.258 C40.342 46.006 40.252 45.754 40.108 45.502 39.946 45.25 39.712 45.106 39.406 45.106 39.226 45.106 39.046 45.124 38.902 45.16 L38.668 45.214 38.416 45.25 C38.236 45.286 38.074 45.286 37.912 45.286 37.732 45.286 37.552 45.304 37.372 45.304 37.156 45.322 36.94 45.322 36.742 45.322 L36.148 45.358 35.122 45.43 C34.762 45.448 34.42 45.466 34.078 45.502 34.294 45.322 34.528 45.124 34.744 44.926 34.96 44.728 35.194 44.53 35.41 44.314 35.806 43.936 36.22 43.558 36.616 43.162 37.012 42.784 37.408 42.406 37.822 42.01 38.362 41.506 38.758 40.93 39.028 40.282 39.298 39.634 39.442 38.932 39.442 38.194 39.442 37.726 39.334 37.294 39.136 36.898 38.92 36.52 38.632 36.178 38.308 35.89 37.966 35.62 37.588 35.404 37.156 35.242 36.724 35.08 36.31 34.99 35.878 34.99 35.338 34.99 34.798 35.062 34.276 35.206 33.754 35.368 33.286 35.62 32.872 35.98 32.728 36.088 32.602 36.232 32.458 36.394 32.314 36.574 32.17 36.754 32.044 36.934 31.9 37.132 31.792 37.33 31.72 37.528 31.63 37.744 31.594 37.942 31.594 38.122 31.594 38.374 31.684 38.59 31.882 38.77 32.062 38.95 32.278 39.04 32.53 39.04 32.692 39.04 32.836 39.004 32.962 38.914 33.07 38.842 33.178 38.752 33.286 38.626 33.358 38.554 33.412 38.464 33.484 38.374 33.52 38.284 33.574 38.194 33.646 38.086 33.718 37.906 33.826 37.708 33.97 37.492 34.186 37.15 34.42 36.88 34.708 36.7 34.996 36.52 35.374 36.43 35.842 36.43 36.094 36.43 36.346 36.484 36.58 36.592 36.796 36.7 36.994 36.844 37.174 37.024 37.336 37.204 37.462 37.42 37.57 37.654 37.66 37.906 37.714 38.158 37.714 38.41 37.714 39.058 37.534 39.634 37.192 40.138 36.85 40.678 36.454 41.146 36.022 41.542 L34.312 43.108 C33.754 43.63 33.178 44.116 32.566 44.584 32.386 44.728 32.224 44.854 32.08 44.998 31.936 45.142 31.792 45.268 31.648 45.412 31.522 45.538 31.414 45.664 31.324 45.808 31.234 45.952 31.198 46.132 31.198 46.312 31.198 46.636 31.306 46.87 31.54 47.014 31.774 47.176 32.026 47.248 32.296 47.248 32.368 47.248 32.458 47.248 32.548 47.23 32.62 47.212 32.692 47.194 32.8 47.158 32.89 47.14 32.98 47.122 33.052 47.104 L33.304 47.068 C33.988 46.996 34.672 46.906 35.356 46.834 36.04 46.78 36.724 46.744 37.408 46.744 37.786 46.744 38.164 46.78 38.56 46.834 38.938 46.906 39.316 46.924 39.712 46.924 39.892 46.924 40.036 46.87 40.162 46.726 40.27 46.582 40.342 46.438 40.342 46.258 Z" fill="#ffffff" fill-opacity="1" stroke="none"/>
</svg>
