<?xml version="1.0" encoding="UTF-8"?>
<svg width="155px" height="60px" viewBox="0 0 155 60" xmlns="http://www.w3.org/2000/svg" xmlns:xlink="http://www.w3.org/1999/xlink" version="1.1">
 <!-- Generated by Pixelmator Pro 1.3.1 -->
 <path id="path" d="M23 7 C11.954 7 3 15.954 3 27 L3 34 C3 45.046 11.954 54 23 54 L132 54 C143.046 54 152 45.046 152 34 L152 27 C152 15.954 143.046 7 132 7 Z" fill="#ffffff" fill-opacity="1" stroke="none"/>
 <defs>
  <text id="string" transform="matrix(1.0 0.0 0.0 1.0 7.0625 5.5)">
   <tspan x="1.829999999999984" y="38.0" font-family="HannotateSC-W7, Hannotate SC" font-size="36" text-decoration="none" fill="#30d9cc">H</tspan>
   <tspan x="25.697999999999986" y="38.0" font-family="HannotateSC-W7, Hannotate SC" font-size="36" text-decoration="none" fill="#30d9cc"> </tspan>
   <tspan x="37.685999999999986" y="38.0" font-family="HannotateSC-W7, Hannotate SC" font-size="36" text-decoration="none" fill="#30d9cc">E</tspan>
   <tspan x="59.42999999999999" y="38.0" font-family="HannotateSC-W7, Hannotate SC" font-size="36" text-decoration="none" fill="#30d9cc">d</tspan>
   <tspan x="78.978" y="38.0" font-family="HannotateSC-W7, Hannotate SC" font-size="36" text-decoration="none" fill="#30d9cc">i</tspan>
   <tspan x="89.31" y="38.0" font-family="HannotateSC-W7, Hannotate SC" font-size="36" text-decoration="none" fill="#30d9cc">t</tspan>
   <tspan x="103.74600000000001" y="38.0" font-family="HannotateSC-W7, Hannotate SC" font-size="36" text-decoration="none" fill="#30d9cc">o</tspan>
   <tspan x="123.04200000000002" y="38.0" font-family="HannotateSC-W7, Hannotate SC" font-size="36" text-decoration="none" fill="#30d9cc">r</tspan>
  </text>
 </defs>
 <use id="h-editor" xlink:href="#string"/>
 <path id="path-1" d="M40.342 46.258 C40.342 46.006 40.252 45.754 40.108 45.502 39.946 45.25 39.712 45.106 39.406 45.106 39.226 45.106 39.046 45.124 38.902 45.16 L38.668 45.214 38.416 45.25 C38.236 45.286 38.074 45.286 37.912 45.286 37.732 45.286 37.552 45.304 37.372 45.304 37.156 45.322 36.94 45.322 36.742 45.322 L36.148 45.358 35.122 45.43 C34.762 45.448 34.42 45.466 34.078 45.502 34.294 45.322 34.528 45.124 34.744 44.926 34.96 44.728 35.194 44.53 35.41 44.314 35.806 43.936 36.22 43.558 36.616 43.162 37.012 42.784 37.408 42.406 37.822 42.01 38.362 41.506 38.758 40.93 39.028 40.282 39.298 39.634 39.442 38.932 39.442 38.194 39.442 37.726 39.334 37.294 39.136 36.898 38.92 36.52 38.632 36.178 38.308 35.89 37.966 35.62 37.588 35.404 37.156 35.242 36.724 35.08 36.31 34.99 35.878 34.99 35.338 34.99 34.798 35.062 34.276 35.206 33.754 35.368 33.286 35.62 32.872 35.98 32.728 36.088 32.602 36.232 32.458 36.394 32.314 36.574 32.17 36.754 32.044 36.934 31.9 37.132 31.792 37.33 31.72 37.528 31.63 37.744 31.594 37.942 31.594 38.122 31.594 38.374 31.684 38.59 31.882 38.77 32.062 38.95 32.278 39.04 32.53 39.04 32.692 39.04 32.836 39.004 32.962 38.914 33.07 38.842 33.178 38.752 33.286 38.626 33.358 38.554 33.412 38.464 33.484 38.374 33.52 38.284 33.574 38.194 33.646 38.086 33.718 37.906 33.826 37.708 33.97 37.492 34.186 37.15 34.42 36.88 34.708 36.7 34.996 36.52 35.374 36.43 35.842 36.43 36.094 36.43 36.346 36.484 36.58 36.592 36.796 36.7 36.994 36.844 37.174 37.024 37.336 37.204 37.462 37.42 37.57 37.654 37.66 37.906 37.714 38.158 37.714 38.41 37.714 39.058 37.534 39.634 37.192 40.138 36.85 40.678 36.454 41.146 36.022 41.542 L34.312 43.108 C33.754 43.63 33.178 44.116 32.566 44.584 32.386 44.728 32.224 44.854 32.08 44.998 31.936 45.142 31.792 45.268 31.648 45.412 31.522 45.538 31.414 45.664 31.324 45.808 31.234 45.952 31.198 46.132 31.198 46.312 31.198 46.636 31.306 46.87 31.54 47.014 31.774 47.176 32.026 47.248 32.296 47.248 32.368 47.248 32.458 47.248 32.548 47.23 32.62 47.212 32.692 47.194 32.8 47.158 32.89 47.14 32.98 47.122 33.052 47.104 L33.304 47.068 C33.988 46.996 34.672 46.906 35.356 46.834 36.04 46.78 36.724 46.744 37.408 46.744 37.786 46.744 38.164 46.78 38.56 46.834 38.938 46.906 39.316 46.924 39.712 46.924 39.892 46.924 40.036 46.87 40.162 46.726 40.27 46.582 40.342 46.438 40.342 46.258 Z" fill="#30d9cc" fill-opacity="1" stroke="none"/>
</svg>
